<?xml version="1.0" encoding="UTF-8"?>
<svg id="Camada_1" data-name="Camada 1" xmlns="http://www.w3.org/2000/svg" viewBox="0 0 1080 398">
  <defs>
    <style>
      .cls-1 {
        fill: #fff9f1;
        stroke-width: 0px;
      }
    </style>
  </defs>
  <path class="cls-1" d="m539.55,136.25c5.7-1.45,11.01-2.82,16.32-4.15,11.47-2.87,22.92-5.82,34.44-8.51,4.58-1.07,9.33-1.65,13.85.51,2.09,1,3.26-.2,4.65-1.42,7.32-6.43,15.72-10.85,25.29-12.76,11.21-2.24,21.35-.27,29.16,8.79,3.1,3.6,5.24,7.77,5.75,12.64.23,2.22.71,4.42,1.15,7.04,1.46-.42,2.68-.67,3.83-1.12,13.13-5.11,26.22-10.31,39.38-15.36,16.57-6.36,33.54-10.2,51.38-6.72,7.79,1.52,15.58,3.25,22.25,7.99,9.04,6.44,11.33,16.22,6.3,26.17-3.91,7.74-9.61,14.19-14.8,21.01-6.28,8.25-12.89,16.28-17.04,25.93-.64,1.49-1.26,3-1.69,4.55-1.28,4.58-.24,6.55,4.6,6.86,4.97.32,10.08.25,14.99-.54,16.05-2.6,30.32-9.88,44.68-17.12,6.83-3.44,9.45-7.54,9.64-15.19.25-10.36,4.7-19.85,10.2-28.56,9.49-15.03,21.86-27.21,37.3-36.18,5.66-3.29,11.63-5.74,18.05-6.97,10.62-2.04,19.71,4.06,20.75,13.84.45,4.28-.42,8.4-2.03,12.37-4.2,10.37-10.88,19.1-18.14,27.45-9.8,11.27-20.78,21.31-32.52,30.52-1.01.79-1.91,1.72-2.97,2.69.98,3.62,3.73,5.66,6.33,7.77,8.51,6.89,18.53,10.49,28.94,13.26,14.42,3.83,29.15,4.84,43.95,4.25,17.33-.69,34.64-1.92,51.95-2.99,5.39-.33,10.72-.18,15.91,1.39,1.14.34,2.17,1.04,4.1,1.98-2.18,1.67-3.59,2.9-5.15,3.91-7.08,4.61-15.26,6.24-23.28,8.09-15.47,3.58-31.06,6.59-46.84,8.55-17.53,2.18-35.06,2.06-52.36-1.25-13.66-2.61-26.45-7.91-37.11-17.22-3.74-3.26-6.87-7.22-10.58-11.18-2.84,1.6-5.91,3.32-8.97,5.06-10.88,6.19-22.19,11.47-34.09,15.32-9.41,3.04-19.03,5.39-29.04,5.41-8.27.02-16.19-1.34-23-6.46-6.76-5.08-10.44-11.74-10.41-20.37.03-8.17,2.36-15.64,6.35-22.68,4.65-8.19,10.14-15.78,16.26-22.94,4.21-4.93,8.32-9.93,12.41-14.96,1.2-1.47,2.16-3.12,3.13-4.54-.4-.65-.5-1.04-.74-1.16-10.06-4.93-20.64-6.5-31.7-4.86-12.65,1.88-24.2,7.14-35.99,11.66-11.49,4.4-22.94,8.89-34.46,13.21-2.98,1.12-5.02,2.51-6.52,5.72-9.5,20.32-23.61,37.01-41.24,50.79-7.95,6.22-16.41,11.55-25.86,15.18-7.39,2.84-14.95,4.36-22.84,2.34-7.78-1.99-12.5-7-14.54-14.74-1.86-7.02-.84-13.85,1.06-20.64,3.88-13.85,10.44-26.48,17.72-38.78,2.61-4.42,5.15-8.88,8.31-14.33-4.56,1.03-8.13,1.76-11.66,2.65-10.21,2.59-20.38,5.33-30.61,7.82-2.51.61-3.84,1.58-4.43,4.26-3.87,17.61-13.38,32.11-25.37,45.22-9.27,10.13-19.89,18.53-32.09,24.82-7.36,3.79-15.06,6.56-23.45,7.47-6.03.65-11.76-.04-17.13-2.41-5.32-2.34-9.25-6.45-11.43-12.03-3.1-7.93-2.51-15.94-.38-23.89,2.22-8.32,5.43-16.28,9.78-23.75.71-1.23,1.3-2.52,2.43-4.72-1.64.76-2.45,1.01-3.11,1.47-14.15,10-28.23,20.1-42.43,30.02-16.46,11.5-33.08,22.79-51.11,31.75-5.19,2.58-10.74,4.48-16.21,6.46-4.68,1.69-9.53,1.53-14.39.61-6.98-1.33-10.44-6.14-12.16-12.44-1.58-5.77-1.01-11.67.48-17.34,1.94-7.35,4.13-14.66,6.62-21.85,4.56-13.16,9.53-26.18,14.08-39.34,1.47-4.27,2.26-8.78,3.18-13.22.33-1.56.3-3.24.15-4.84-.35-3.71-1.57-5.01-5.23-4.96-2.72.03-5.5.47-8.14,1.14-8.86,2.24-17.11,6.04-25,10.54-17.64,10.07-33.7,22.29-48.94,35.71-12.79,11.27-24.7,23.36-36.23,35.86-4.83,5.24-9.41,10.7-14.07,16.09-2.38,2.76-5.2,4.27-8.97,3.7-4.15-.62-6.9-3.38-6.68-7.54.12-2.34.74-4.89,1.91-6.89,5.83-9.9,11.98-19.61,17.92-29.45,9.53-15.8,19.51-31.36,26.98-48.31,1.74-3.94,2.69-8.23,4.05-12.48-3.62-1.53-6.56-1.02-9.55-.21-12.59,3.42-24.27,9.01-35.67,15.19-14.38,7.8-28.11,16.64-41.46,26.12-21.82,15.49-42.21,32.67-61.7,50.97-6.73,6.32-13.58,12.5-20.52,18.58-1.64,1.44-3.78,2.74-5.87,3.14-3.42.66-6.83.1-9.14-3.11-2.45-3.41-2.35-6.99-.57-10.57.71-1.43,1.81-2.68,2.81-3.96,10.6-13.49,21.19-26.99,31.84-40.44,13.76-17.38,27.46-34.81,41.41-52.03,4.24-5.24,9.18-9.93,13.91-14.77,1.1-1.13,2.52-2.13,3.98-2.67,3.07-1.15,5.37.81,4.49,3.96-.73,2.6-1.89,5.2-3.39,7.45-6.84,10.23-13.86,20.34-20.84,30.48-2.19,3.19-4.46,6.32-6.27,10.07.7-.35,1.46-.62,2.1-1.06,13.65-9.29,26.94-19.17,41.02-27.74,12-7.3,24.74-13.48,37.48-19.44,10.12-4.73,20.81-8.17,32.14-8.95,4.85-.34,9.32.66,13.46,3.25,4.97,3.11,7.22,7.77,7.58,13.39.53,8.36-2.44,15.93-5.71,23.39-1.67,3.81-3.38,7.59-4.46,11.91,2.65-2.17,5.33-4.32,7.96-6.53,11.94-10,24.53-19.07,38-26.89,9.42-5.47,19.3-9.93,29.76-13.03,5.51-1.63,11.15-2.14,16.86-1.54,11.3,1.18,18.56,8.27,19.03,19.65.23,5.58-.4,11.44-1.93,16.8-2.9,10.1-6.72,19.94-10.2,29.88-4.06,11.61-8.29,23.17-12.19,34.84-1.43,4.26-2.3,8.75-1.16,13.43,2.51,1.08,4.91.83,7.15-.21,6.6-3.06,13.36-5.85,19.66-9.45,27.04-15.47,51.79-34.33,77.08-52.38,12.26-8.75,24.67-17.27,36.94-26,2.06-1.47,3.95-3.3,5.58-5.24,13.19-15.67,29.9-22.51,50.12-18.97,11.05,1.93,18.8,9.01,23.55,19.21.61,1.31,1.1,2.68,1.96,4.78Zm-17.96,23.93c-17.69,1.82-34.6,5.19-51.24-1.08-.58.58-1.15.95-1.46,1.48-5.24,8.92-10.73,17.71-15.58,26.84-3.57,6.72-6.3,13.88-6.79,21.66-.47,7.38,1.73,9.85,9.2,9.55,6.74-.27,12.94-2.64,18.9-5.72,13.93-7.21,25.3-17.42,34.74-29.81,5.12-6.71,9.18-14.06,12.23-22.92Zm78.4.99c-.77.86-1.39,1.37-1.77,2.02-6.23,10.42-12.07,21.05-16.43,32.4-1.73,4.5-2.97,9.27-3.75,14.02-.73,4.4.98,5.85,5.26,4.73,4.51-1.18,9.11-2.47,13.24-4.55,17.99-9.11,32.25-22.56,43.96-38.82.67-.93,1.06-2.07,1.85-3.63-15.16,2.08-29.8,5.16-42.34-6.16Zm53.23-16.98c.21-2.54.53-4.93.58-7.32.16-8.45-5.38-13.43-13.73-12.07-11.06,1.81-19.44,7.73-24.97,17.47-.88,1.54-.98,3.53-1.52,5.63,14.05,3.85,26.53-.7,39.65-3.72Zm209.39,20.93c4.42-3.26,8.2-5.95,11.87-8.78,8.74-6.75,16.57-14.43,22.81-23.57,1.31-1.92,2.21-4.33,2.57-6.63.49-3.13-1.23-4.67-4.36-3.79-3.21.9-6.45,2.16-9.24,3.95-10.54,6.75-17.63,16.49-22.47,27.83-1.24,2.92-2.6,6.25-1.18,10.98Zm-340.17-25.26c-1.94-7.28-7.23-11.76-14.45-12.53-8.27-.89-15.52,2.04-22.49,6.15-3.78,2.23-4.6,5.34-3.85,9.71,13.83,1.55,27.08-1.27,40.79-3.33Z"/>
  <g>
    <path class="cls-1" d="m284.58,310.3h5.54l8.96,15.03c.87,1.47,1.88,3.77,1.88,3.77h.08s-.15-2.79-.15-4.67v-14.12h5.39v26.93h-5.27l-9.19-14.88c-.87-1.43-1.92-3.73-1.92-3.73h-.08s.15,2.82.15,4.71v13.9h-5.39v-26.93Z"/>
    <path class="cls-1" d="m325.37,310.3h5.65l9.49,26.93h-5.69l-1.81-5.72h-9.72l-1.77,5.72h-5.54l9.38-26.93Zm-.79,17.02h7.12l-2.41-7.76c-.45-1.43-1.09-4.14-1.09-4.14h-.08s-.68,2.71-1.13,4.14l-2.41,7.76Z"/>
    <path class="cls-1" d="m345.51,310.3h21.65v4.59h-8.1v22.33h-5.46v-22.33h-8.1v-4.59Z"/>
    <path class="cls-1" d="m377.22,328.57v-18.26h5.46v18.26c0,2.79,1.39,4.74,5.05,4.74,3.46,0,5.08-2.03,5.08-4.82v-18.19h5.46v18.26c0,5.76-3.54,9.11-10.43,9.11s-10.62-3.28-10.62-9.11Z"/>
    <path class="cls-1" d="m409.72,310.3h12.35c5.2,0,8.66,3.01,8.66,7.49,0,3.16-1.47,5.57-4.93,6.51v.11c2.49.71,3.77,2.15,4.1,5.42.38,3.8.23,6.7,1.17,7.12v.26h-5.23c-.68-.3-.75-3.31-.98-6.21-.23-2.94-1.88-4.59-5.27-4.59h-4.41v10.81h-5.46v-26.93Zm5.46,11.9h5.8c2.98,0,4.44-1.54,4.44-3.69s-1.39-3.8-4.29-3.8h-5.95v7.49Z"/>
    <path class="cls-1" d="m449.37,310.3h5.65l9.49,26.93h-5.69l-1.81-5.72h-9.72l-1.77,5.72h-5.54l9.38-26.93Zm-.79,17.02h7.12l-2.41-7.76c-.45-1.43-1.09-4.14-1.09-4.14h-.08s-.68,2.71-1.13,4.14l-2.41,7.76Z"/>
    <path class="cls-1" d="m474.3,310.3h5.46v22.37h12.65v4.56h-18.11v-26.93Z"/>
    <path class="cls-1" d="m515.53,328.91h5.35c.38,3.24,2.22,4.52,6.06,4.52,2.79,0,5.23-.98,5.23-3.46,0-2.64-2.56-3.16-6.67-4.1-4.82-1.09-9.23-2.37-9.23-7.98,0-5.31,4.33-8.06,10.32-8.06s9.98,2.97,10.39,8.4h-5.23c-.3-2.71-2.41-4.07-5.2-4.07-2.94,0-4.86,1.24-4.86,3.16,0,2.18,1.88,2.83,5.88,3.69,5.54,1.21,10.05,2.52,10.05,8.32,0,5.46-4.41,8.51-10.47,8.51-7.31,0-11.45-3.24-11.64-8.92Z"/>
    <path class="cls-1" d="m548.45,310.3h5.46v10.73l10.36-10.73h6.78l-10.54,10.77,11.22,16.16h-6.4l-8.66-12.58-2.75,2.79v9.79h-5.46v-26.93Z"/>
    <path class="cls-1" d="m581.4,310.3h5.46v26.93h-5.46v-26.93Z"/>
    <path class="cls-1" d="m598.57,310.3h5.54l8.96,15.03c.87,1.47,1.88,3.77,1.88,3.77h.08s-.15-2.79-.15-4.67v-14.12h5.38v26.93h-5.27l-9.19-14.88c-.87-1.43-1.92-3.73-1.92-3.73h-.08s.15,2.82.15,4.71v13.9h-5.39v-26.93Z"/>
    <path class="cls-1" d="m644.62,323.86c0-7.98,4.97-14.08,12.92-14.08,6.63,0,10.54,3.95,11.11,9.08h-5.42c-.49-2.71-2.52-4.48-5.69-4.48-4.97,0-7.34,4.14-7.34,9.49s2.86,9.45,7.38,9.45c3.2,0,5.46-1.92,5.8-4.74h5.35c-.15,2.37-1.17,4.67-2.98,6.36-1.84,1.73-4.44,2.86-8.17,2.86-7.57,0-12.95-5.84-12.95-13.93Z"/>
    <path class="cls-1" d="m685.74,310.3h5.65l9.49,26.93h-5.69l-1.81-5.72h-9.72l-1.77,5.72h-5.54l9.38-26.93Zm-.79,17.02h7.12l-2.41-7.76c-.45-1.43-1.09-4.14-1.09-4.14h-.08s-.68,2.71-1.13,4.14l-2.41,7.76Z"/>
    <path class="cls-1" d="m710.67,310.3h12.35c5.2,0,8.66,3.01,8.66,7.49,0,3.16-1.47,5.57-4.93,6.51v.11c2.49.71,3.77,2.15,4.11,5.42.38,3.8.23,6.7,1.17,7.12v.26h-5.23c-.68-.3-.75-3.31-.98-6.21-.23-2.94-1.88-4.59-5.27-4.59h-4.41v10.81h-5.46v-26.93Zm5.46,11.9h5.8c2.98,0,4.44-1.54,4.44-3.69s-1.39-3.8-4.29-3.8h-5.95v7.49Z"/>
    <path class="cls-1" d="m742.72,310.3h19.81v4.59h-14.35v6.03h12.58v4.48h-12.58v7.27h14.46v4.56h-19.92v-26.93Z"/>
  </g>
  <path class="cls-1" d="m953.77,76.82c0-11.51,8.71-20.06,19.79-20.06s19.73,8.55,19.73,20.06-8.66,20-19.73,20-19.79-8.5-19.79-20Zm36.4,0c0-9.95-7.15-17.37-16.62-17.37s-16.67,7.42-16.67,17.37,7.15,17.37,16.67,17.37,16.62-7.42,16.62-17.37Zm-27.96-.16c0-6.99,4.52-12.21,11.56-12.21,5.91,0,9.62,3.6,10.16,8.5h-5.81c-.38-1.99-1.88-3.5-4.41-3.5-3.6,0-5.43,3.12-5.43,7.21s2.15,7.15,5.49,7.15c2.74,0,4.3-1.77,4.57-3.93h5.81c-.16,2.42-1.24,4.68-2.85,6.24-1.83,1.77-4.25,2.63-7.58,2.63-6.88,0-11.51-5.11-11.51-12.1Z"/>
</svg>